<svg width="2526" height="900" viewBox="0 0 2526 900" fill="none" xmlns="http://www.w3.org/2000/svg">
<path d="M457 293.9V344.75H326.05V425.3H426.4V475.25H326.05V608H263.05V293.9H457ZM485.473 482.45C485.473 457.25 490.423 434.9 500.323 415.4C510.523 395.9 524.173 380.9 541.273 370.4C558.673 359.9 578.023 354.65 599.323 354.65C617.923 354.65 634.123 358.4 647.923 365.9C662.023 373.4 673.273 382.85 681.673 394.25V358.7H745.123V608H681.673V571.55C673.573 583.25 662.323 593 647.923 600.8C633.823 608.3 617.473 612.05 598.873 612.05C577.873 612.05 558.673 606.65 541.273 595.85C524.173 585.05 510.523 569.9 500.323 550.4C490.423 530.6 485.473 507.95 485.473 482.45ZM681.673 483.35C681.673 468.05 678.673 455 672.673 444.2C666.673 433.1 658.573 424.7 648.373 419C638.173 413 627.223 410 615.523 410C603.823 410 593.023 412.85 583.123 418.55C573.223 424.25 565.123 432.65 558.823 443.75C552.823 454.55 549.823 467.45 549.823 482.45C549.823 497.45 552.823 510.65 558.823 522.05C565.123 533.15 573.223 541.7 583.123 547.7C593.323 553.7 604.123 556.7 615.523 556.7C627.223 556.7 638.173 553.85 648.373 548.15C658.573 542.15 666.673 533.75 672.673 522.95C678.673 511.85 681.673 498.65 681.673 483.35ZM902.054 612.05C881.654 612.05 863.354 608.45 847.154 601.25C830.954 593.75 818.054 583.7 808.454 571.1C799.154 558.5 794.054 544.55 793.154 529.25H856.604C857.804 538.85 862.454 546.8 870.554 553.1C878.954 559.4 889.304 562.55 901.604 562.55C913.604 562.55 922.904 560.15 929.504 555.35C936.404 550.55 939.854 544.4 939.854 536.9C939.854 528.8 935.654 522.8 927.254 518.9C919.154 514.7 906.104 510.2 888.104 505.4C869.504 500.9 854.204 496.25 842.204 491.45C830.504 486.65 820.304 479.3 811.604 469.4C803.204 459.5 799.004 446.15 799.004 429.35C799.004 415.55 802.904 402.95 810.704 391.55C818.804 380.15 830.204 371.15 844.904 364.55C859.904 357.95 877.454 354.65 897.554 354.65C927.254 354.65 950.954 362.15 968.654 377.15C986.354 391.85 996.104 411.8 997.904 437H937.604C936.704 427.1 932.504 419.3 925.004 413.6C917.804 407.6 908.054 404.6 895.754 404.6C884.354 404.6 875.504 406.7 869.204 410.9C863.204 415.1 860.204 420.95 860.204 428.45C860.204 436.85 864.404 443.3 872.804 447.8C881.204 452 894.254 456.35 911.954 460.85C929.954 465.35 944.804 470 956.504 474.8C968.204 479.6 978.254 487.1 986.654 497.3C995.354 507.2 999.854 520.4 1000.15 536.9C1000.15 551.3 996.104 564.2 988.004 575.6C980.204 587 968.804 596 953.804 602.6C939.104 608.9 921.854 612.05 902.054 612.05ZM1083.82 329C1072.72 329 1063.42 325.55 1055.92 318.65C1048.72 311.45 1045.12 302.6 1045.12 292.1C1045.12 281.6 1048.72 272.9 1055.92 266C1063.42 258.8 1072.72 255.2 1083.82 255.2C1094.92 255.2 1104.07 258.8 1111.27 266C1118.77 272.9 1122.52 281.6 1122.52 292.1C1122.52 302.6 1118.77 311.45 1111.27 318.65C1104.07 325.55 1094.92 329 1083.82 329ZM1114.87 358.7V608H1051.87V358.7H1114.87ZM1240.11 275V608H1177.11V275H1240.11ZM1449.96 608L1365.36 501.8V608H1302.36V275H1365.36V464.45L1449.06 358.7H1530.96L1421.16 483.8L1531.86 608H1449.96ZM1675.85 612.05C1651.85 612.05 1630.25 606.8 1611.05 596.3C1591.85 585.5 1576.7 570.35 1565.6 550.85C1554.8 531.35 1549.4 508.85 1549.4 483.35C1549.4 457.85 1554.95 435.35 1566.05 415.85C1577.45 396.35 1592.9 381.35 1612.4 370.85C1631.9 360.05 1653.65 354.65 1677.65 354.65C1701.65 354.65 1723.4 360.05 1742.9 370.85C1762.4 381.35 1777.7 396.35 1788.8 415.85C1800.2 435.35 1805.9 457.85 1805.9 483.35C1805.9 508.85 1800.05 531.35 1788.35 550.85C1776.95 570.35 1761.35 585.5 1741.55 596.3C1722.05 606.8 1700.15 612.05 1675.85 612.05ZM1675.85 557.15C1687.25 557.15 1697.9 554.45 1707.8 549.05C1718 543.35 1726.1 534.95 1732.1 523.85C1738.1 512.75 1741.1 499.25 1741.1 483.35C1741.1 459.65 1734.8 441.5 1722.2 428.9C1709.9 416 1694.75 409.55 1676.75 409.55C1658.75 409.55 1643.6 416 1631.3 428.9C1619.3 441.5 1613.3 459.65 1613.3 483.35C1613.3 507.05 1619.15 525.35 1630.85 538.25C1642.85 550.85 1657.85 557.15 1675.85 557.15ZM2161.71 355.1C2192.31 355.1 2216.91 364.55 2235.51 383.45C2254.41 402.05 2263.86 428.15 2263.86 461.75V608H2200.86V470.3C2200.86 450.8 2195.91 435.95 2186.01 425.75C2176.11 415.25 2162.61 410 2145.51 410C2128.41 410 2114.76 415.25 2104.56 425.75C2094.66 435.95 2089.71 450.8 2089.71 470.3V608H2026.71V470.3C2026.71 450.8 2021.76 435.95 2011.86 425.75C2001.96 415.25 1988.46 410 1971.36 410C1953.96 410 1940.16 415.25 1929.96 425.75C1920.06 435.95 1915.11 450.8 1915.11 470.3V608H1852.11V358.7H1915.11V388.85C1923.21 378.35 1933.56 370.1 1946.16 364.1C1959.06 358.1 1973.16 355.1 1988.46 355.1C2007.96 355.1 2025.36 359.3 2040.66 367.7C2055.96 375.8 2067.81 387.5 2076.21 402.8C2084.31 388.4 2096.01 376.85 2111.31 368.15C2126.91 359.45 2143.71 355.1 2161.71 355.1Z" fill="white"/>
</svg>
