<svg width="2526" height="900" viewBox="0 0 2526 900" fill="none" xmlns="http://www.w3.org/2000/svg">
<path d="M300.15 292.9V487.3C300.15 508.6 305.7 524.95 316.8 536.35C327.9 547.45 343.5 553 363.6 553C384 553 399.75 547.45 410.85 536.35C421.95 524.95 427.5 508.6 427.5 487.3V292.9H490.95V486.85C490.95 513.55 485.1 536.2 473.4 554.8C462 573.1 446.55 586.9 427.05 596.2C407.85 605.5 386.4 610.15 362.7 610.15C339.3 610.15 318 605.5 298.8 596.2C279.9 586.9 264.9 573.1 253.8 554.8C242.7 536.2 237.15 513.55 237.15 486.85V292.9H300.15ZM689.97 354.1C719.67 354.1 743.67 363.55 761.97 382.45C780.27 401.05 789.42 427.15 789.42 460.75V607H726.42V469.3C726.42 449.5 721.47 434.35 711.57 423.85C701.67 413.05 688.17 407.65 671.07 407.65C653.67 407.65 639.87 413.05 629.67 423.85C619.77 434.35 614.82 449.5 614.82 469.3V607H551.82V357.7H614.82V388.75C623.22 377.95 633.87 369.55 646.77 363.55C659.97 357.25 674.37 354.1 689.97 354.1ZM1081.08 476.95C1081.08 485.95 1080.48 494.05 1079.28 501.25H897.029C898.529 519.25 904.829 533.35 915.929 543.55C927.029 553.75 940.679 558.85 956.879 558.85C980.279 558.85 996.929 548.8 1006.83 528.7H1074.78C1067.58 552.7 1053.78 572.5 1033.38 588.1C1012.98 603.4 987.929 611.05 958.229 611.05C934.229 611.05 912.629 605.8 893.429 595.3C874.529 584.5 859.679 569.35 848.879 549.85C838.379 530.35 833.129 507.85 833.129 482.35C833.129 456.55 838.379 433.9 848.879 414.4C859.379 394.9 874.079 379.9 892.979 369.4C911.879 358.9 933.629 353.65 958.229 353.65C981.929 353.65 1003.08 358.75 1021.68 368.95C1040.58 379.15 1055.13 393.7 1065.33 412.6C1075.83 431.2 1081.08 452.65 1081.08 476.95ZM1015.83 458.95C1015.53 442.75 1009.68 429.85 998.279 420.25C986.879 410.35 972.929 405.4 956.429 405.4C940.829 405.4 927.629 410.2 916.829 419.8C906.329 429.1 899.879 442.15 897.479 458.95H1015.83ZM1159.01 328C1147.61 328 1138.16 324.55 1130.66 317.65C1123.46 310.45 1119.86 301.6 1119.86 291.1C1119.86 280.6 1123.46 271.9 1130.66 265C1138.16 257.8 1147.61 254.2 1159.01 254.2C1170.11 254.2 1179.26 257.8 1186.46 265C1193.66 271.9 1197.26 280.6 1197.26 291.1C1197.26 301.6 1193.66 310.45 1186.46 317.65C1179.26 324.55 1170.11 328 1159.01 328ZM1190.06 647.95C1190.06 675.55 1183.16 695.35 1169.36 707.35C1155.86 719.65 1136.36 725.8 1110.86 725.8H1082.96V672.25H1100.96C1110.56 672.25 1117.31 670.3 1121.21 666.4C1125.11 662.8 1127.06 656.8 1127.06 648.4V357.7H1190.06V647.95Z" fill="white"/>
</svg>
